%
M48
M72
T01C0.0200
T02C0.0394
T03C0.0400
T04C0.0472
T05C0.0600
T06C0.0700
T07C0.1102
%
T01
X3551Y4450
X2961Y6517
X1976Y7107
X5421Y7599
X6012Y8288
X6209Y8780
X8177Y8190
X11622Y8977
X12902Y8780
X12655Y10158
X13689Y10454
X11622Y11733
X13000Y12324
X13000Y13013
X9752Y12127
X8571Y12127
X6996Y12028
X12803Y6713
X12803Y5926
X13591Y3269
X9850Y1694
X9850Y1202
X9161Y2481
X8079Y2087
X8177Y5237
T02
X3764Y5942
X3764Y6942
X3764Y7942
X3764Y8942
X3764Y9942
X3764Y10942
X3764Y11942
X3764Y12942
X13764Y12942
X14764Y12942
X15764Y12942
X15764Y11942
X14764Y11942
X13764Y11942
X14764Y10942
X15764Y10942
X15764Y9942
X14764Y9942
X14764Y8942
X14764Y7942
X14764Y6942
X14764Y5942
T03
X2764Y2942
X3764Y2942
X4764Y2942
T04
X10618Y7028
T05
X15657Y3662
T06
X14654Y2658
X16661Y2658
X16661Y4666
X14654Y4666
T07
X16764Y6942
M30
